<?xml version="1.0" standalone="no"?>
<!DOCTYPE svg PUBLIC "-//W3C//DTD SVG 20010904//EN"
 "http://www.w3.org/TR/2001/REC-SVG-20010904/DTD/svg10.dtd">
<svg version="1.0" xmlns="http://www.w3.org/2000/svg"
 width="260.000000pt" height="260.000000pt" viewBox="0 0 260.000000 260.000000"
 preserveAspectRatio="xMidYMid meet">
<metadata>
Created by potrace 1.11, written by Peter Selinger 2001-2013
</metadata>
<g transform="translate(0.000000,260.000000) scale(0.100000,-0.100000)"
fill="#000000" stroke="none">
<path d="M0 2325 l0 -275 25 0 25 0 0 250 0 250 350 0 350 0 0 25 0 25 -375 0
-375 0 0 -275z"/>
<path d="M1852 2578 l3 -23 347 -3 348 -2 2 -248 3 -247 23 -3 22 -3 0 275 0
276 -376 0 -375 0 3 -22z"/>
<path d="M527 1348 c-180 -326 -343 -621 -362 -655 l-35 -63 89 0 88 0 107
200 108 200 243 0 243 0 10 -47 c6 -27 23 -117 38 -200 l28 -153 78 0 c65 0
78 3 78 16 0 12 -178 927 -246 1262 l-6 32 -67 0 -66 0 -328 -592z m414 54
c22 -123 38 -226 36 -228 -2 -3 -87 -3 -189 -2 l-185 3 64 115 c35 63 98 183
140 265 l77 150 8 -40 c4 -22 26 -141 49 -263z"/>
<path d="M1602 1297 c-73 -353 -132 -648 -132 -656 0 -11 47 -12 268 -9 291 6
361 16 482 75 69 34 155 114 185 174 48 93 52 208 10 288 -21 42 -89 98 -134
112 -23 7 -41 15 -41 19 0 3 17 12 38 19 51 19 115 64 151 108 93 112 81 304
-25 405 -93 87 -181 108 -464 108 l-205 0 -133 -643z m615 479 c93 -39 130
-124 99 -228 -18 -64 -68 -117 -141 -150 -44 -20 -69 -23 -222 -26 -95 -2
-173 0 -173 5 0 4 19 102 42 216 l43 209 155 -4 c119 -3 165 -8 197 -22z m-32
-576 c128 -65 124 -253 -7 -349 -77 -57 -151 -73 -352 -79 -150 -4 -178 -2
-174 9 3 8 25 112 49 232 l44 218 195 -3 c186 -3 198 -4 245 -28z"/>
<path d="M0 275 l0 -275 375 0 375 0 0 25 0 25 -350 0 -350 0 0 250 0 250 -25
0 -25 0 0 -275z"/>
<path d="M2550 300 l0 -250 -350 0 -350 0 0 -25 0 -25 375 0 375 0 0 275 0
275 -25 0 -25 0 0 -250z"/>
</g>
</svg>
